<?xml version="1.0" standalone="no"?>
<!DOCTYPE svg PUBLIC "-//W3C//DTD SVG 20010904//EN"
 "http://www.w3.org/TR/2001/REC-SVG-20010904/DTD/svg10.dtd">
<svg version="1.0" xmlns="http://www.w3.org/2000/svg"
 width="96.000000pt" height="96.000000pt" viewBox="0 0 96.000000 96.000000"
 preserveAspectRatio="xMidYMid meet">
<metadata>
Created by potrace 1.11, written by Peter Selinger 2001-2013
</metadata>
<g transform="translate(0.000000,96.000000) scale(0.100000,-0.100000)"
fill="#000000" stroke="none">
<path d="M330 695 c-13 -33 -13 -61 0 -84 6 -12 5 -32 -1 -56 -8 -28 -8 -44 1
-61 13 -23 8 -76 -11 -126 -8 -18 -7 -32 0 -46 8 -14 8 -23 1 -27 -14 -9 -2
-25 18 -25 9 0 31 7 47 16 34 17 78 13 102 -11 20 -20 48 -15 47 9 -1 9 14 33
33 52 28 28 32 38 23 49 -7 8 -9 15 -4 15 24 1 36 18 25 37 -9 18 -5 22 29 38
57 26 64 37 50 79 -19 60 -33 63 -85 19 -25 -21 -53 -49 -61 -61 -15 -22 -14
-26 5 -46 19 -20 20 -24 6 -36 -18 -15 -21 -10 -34 79 -11 67 -8 81 13 81 16
0 66 38 66 51 0 18 -48 20 -86 4 -21 -10 -60 -18 -86 -19 l-47 -2 -10 42 c-14
53 -28 63 -41 29z"/>
</g>
</svg>
